<svg xmlns="http://www.w3.org/2000/svg" xml:space="preserve" viewBox="0 0 308 632"><path fill="none" stroke="#737373" d="M1 54.5C1 25 25 1 54.5 1h199C283 1 307 25 307 54.5v523c0 29.5-24 53.5-53.5 53.5h-199C25 631 1 607 1 577.5v-523z"/><path fill="#fff" stroke="#737373" d="M12 55.5C12 30.9 31.9 11 56.5 11h24C86.9 11 92 16.1 92 22.5c0 8 6.5 14.5 14.5 14.5h95c8 0 14.5-6.5 14.5-14.5 0-6.4 5.1-11.5 11.5-11.5h24c24.6 0 44.5 19.9 44.5 44.5v521c0 24.6-19.9 44.5-44.5 44.5h-195C31.9 621 12 601.1 12 576.5v-521z"/></svg>